{"title":"The.Man.with.the.Iron.Fists.2.2015.BRRip.480p-VYTO [P2PDL]","uid":12191684,"size":375382809,"categoryP":"video","categoryS":"movies","magnet":"?xt=urn:btih:779f7f3008bdecdbfa9206e0bdabba1e5d8bd6bb&amp;dn=The.Man.with.the.Iron.Fists.2.2015.BRRip.480p-VYTO+%5BP2PDL%5D&amp;tr=udp%3A%2F%2Ftracker.openbittorrent.com%3A80&amp;tr=udp%3A%2F%2Fopen.demonii.com%3A1337&amp;tr=udp%3A%2F%2Ftracker.coppersurfer.tk%3A6969&amp;tr=udp%3A%2F%2Fexodus.desync.com%3A6969","seeders":4,"leechers":1,"uploader":"ValidusVyto","files":7,"time":1438664986,"description":"____    ____ ____    ____ .___________.  ______   \n     /   /      /   / |           | /  __    \n    /   /      /   /  `---|  |----`|  |  |  | \n        /     _    _/       |  |     |  |  |  | \n       /        |  |         |  |     |  `--'  | \n    __/         |__|         |__|      ______/  \n                                                  \nPresenting Small Encodes with quality for years!\n                                                                                                   \n                                                                                                   \n\nThe.Man.with.the.Iron.Fists.2.2015.BRRip.480p.x264.AAC-VYTO\n\n\nGenre: Action &lt;a href=&quot;\nhttp://www.imdb.com/title/tt3625152/&quot; rel=&quot;nofollow&quot; target=&quot;_NEW&quot;&gt;\nhttp://www.imdb.com/title/tt3625152/&lt;/a&gt;\n\n\nGeneral\nFormat                         : MPEG-4\nFile size                      : 351 MiB\nDuration                       : 1h 30mn\nOverall bit rate               : 542 Kbps\n\nVideo\nFormat                         : AVC\nBit rate                       : 508 Kbps\nWidth                          : 720 pixels\nHeight                         : 400 pixels\nDisplay aspect ratio           : 16:9\nFrame rate mode                : Constant\nFrame rate                     : 23.976 fps\nBit depth                      : 8 bits\nStream size                    : 328 MiB (94%)\nWriting library                : x264 core 146 r2538 121396c\n\nAudio\nFormat                         : AAC\nBit rate mode                  : Variable\nBit rate                       : 32.0 Kbps\nChannel(s)                     : 2 channels\nChannel positions              : Front: L R \nSampling rate                  : 48.0 KHz\nStream size                    : 20.7 MiB (6%)\nLanguage                       : English\n\nSubtitle                       : Yes\nSource                     \t   : UNRATED.720p.BluRay.x264-ROVERS\t\t\t\n\n\nScreenshots:\n &lt;a href=&quot;\nhttp://ititli.com/nN&quot; rel=&quot;nofollow&quot; target=&quot;_NEW&quot;&gt;\nhttp://ititli.com/nN&lt;/a&gt; &lt;a href=&quot;\nhttp://ititli.com/nP&quot; rel=&quot;nofollow&quot; target=&quot;_NEW&quot;&gt;\nhttp://ititli.com/nP&lt;/a&gt; &lt;a href=&quot;\nhttp://ititli.com/nf&quot; rel=&quot;nofollow&quot; target=&quot;_NEW&quot;&gt;\nhttp://ititli.com/nf&lt;/a&gt; &lt;a href=&quot;\nhttp://ititli.com/nu&quot; rel=&quot;nofollow&quot; target=&quot;_NEW&quot;&gt;\nhttp://ititli.com/nu&lt;/a&gt; &lt;a href=&quot;\nhttp://ititli.com/nv&quot; rel=&quot;nofollow&quot; target=&quot;_NEW&quot;&gt;\nhttp://ititli.com/nv&lt;/a&gt; &lt;a href=&quot;\nhttp://ititli.com/nR&quot; rel=&quot;nofollow&quot; target=&quot;_NEW&quot;&gt;\nhttp://ititli.com/nR&lt;/a&gt; &lt;a href=&quot;\nhttp://ititli.com/ny&quot; rel=&quot;nofollow&quot; target=&quot;_NEW&quot;&gt;\nhttp://ititli.com/ny&lt;/a&gt; &lt;a href=&quot;\nhttp://ititli.com/n3&quot; rel=&quot;nofollow&quot; target=&quot;_NEW&quot;&gt;\nhttp://ititli.com/n3&lt;/a&gt; &lt;a href=&quot;\nhttp://ititli.com/nE&quot; rel=&quot;nofollow&quot; target=&quot;_NEW&quot;&gt;\nhttp://ititli.com/nE&lt;/a&gt; &lt;a href=&quot;\nhttp://ititli.com/nQ&quot; rel=&quot;nofollow&quot; target=&quot;_NEW&quot;&gt;\nhttp://ititli.com/nQ&lt;/a&gt; &lt;a href=&quot;\nhttp://ititli.com/nS&quot; rel=&quot;nofollow&quot; target=&quot;_NEW&quot;&gt;\nhttp://ititli.com/nS&lt;/a&gt; &lt;a href=&quot;\nhttp://ititli.com/nZ&quot; rel=&quot;nofollow&quot; target=&quot;_NEW&quot;&gt;\nhttp://ititli.com/nZ&lt;/a&gt;\n\n----------------------------------------------------------------------------------------------------\n\n\nEncoder Notes: Looking For Early Access To Anything You Can Provide DVDScr, R5, DVDR, BluRay, Direct\nAudio, Music Releases and Seedboxes. If You Got anything to offer please contact us.\n\nSupport us by donating BC - 1FgwdzPsd1y25Gea8wP1qni35uGCtmkRCD","torrent":{"xt":"urn:btih:779f7f3008bdecdbfa9206e0bdabba1e5d8bd6bb","amp;dn":"The.Man.with.the.Iron.Fists.2.2015.BRRip.480p-VYTO+%5BP2PDL%5D","amp;tr":["udp%3A%2F%2Ftracker.openbittorrent.com%3A80","udp%3A%2F%2Fopen.demonii.com%3A1337","udp%3A%2F%2Ftracker.coppersurfer.tk%3A6969","udp%3A%2F%2Fexodus.desync.com%3A6969"],"infoHash":"779f7f3008bdecdbfa9206e0bdabba1e5d8bd6bb","infoHashBuffer":{"type":"Buffer","data":[119,159,127,48,8,189,236,219,250,146,6,224,189,171,186,30,93,139,214,187]},"announce":[],"urlList":[]}}